<mxfile host="app.diagrams.net" modified="2024-05-27T03:08:35.150Z" agent="Mozilla/5.0 (Windows NT 10.0; Win64; x64) AppleWebKit/537.36 (KHTML, like Gecko) Chrome/125.0.0.0 Safari/537.36" etag="msHwLDgI8IhGYLlRnpuQ" version="24.4.8" type="github">
  <diagram name="第 1 页" id="WcLqykNyLvqDwkTvPzCX">
    <mxGraphModel dx="3428" dy="3562" grid="1" gridSize="10" guides="1" tooltips="1" connect="1" arrows="1" fold="1" page="1" pageScale="1" pageWidth="827" pageHeight="1169" math="0" shadow="0">
      <root>
        <mxCell id="0" />
        <mxCell id="1" parent="0" />
        <mxCell id="uQRwRF5fo-uvdLEsApBY-5" style="edgeStyle=orthogonalEdgeStyle;rounded=0;orthogonalLoop=1;jettySize=auto;html=1;entryX=0;entryY=0.5;entryDx=0;entryDy=0;" edge="1" parent="1" source="uQRwRF5fo-uvdLEsApBY-3" target="uQRwRF5fo-uvdLEsApBY-4">
          <mxGeometry relative="1" as="geometry" />
        </mxCell>
        <mxCell id="uQRwRF5fo-uvdLEsApBY-3" value="&lt;h1 style=&quot;margin-top: 0px;&quot;&gt;C Code&lt;/h1&gt;&lt;p&gt;#include &amp;lt;stdio.h&amp;gt;&lt;/p&gt;&lt;p&gt;&lt;br&gt;&lt;/p&gt;&lt;p&gt;int callee(int a, int b, int c)&lt;/p&gt;&lt;p&gt;{&lt;/p&gt;&lt;p&gt;&amp;nbsp; &amp;nbsp; return a + b + c;&lt;/p&gt;&lt;p&gt;}&lt;/p&gt;&lt;p&gt;&lt;br&gt;&lt;/p&gt;&lt;p&gt;int caller(void)&lt;/p&gt;&lt;p&gt;{&lt;/p&gt;&lt;p&gt;&amp;nbsp; &amp;nbsp; int ret;&lt;/p&gt;&lt;p&gt;&amp;nbsp; &amp;nbsp; ret = callee(1, 2, 3);&lt;/p&gt;&lt;p&gt;&amp;nbsp; &amp;nbsp; ret += 4;&lt;/p&gt;&lt;p&gt;&amp;nbsp; &amp;nbsp; return ret;&lt;/p&gt;&lt;p&gt;}&lt;/p&gt;" style="text;html=1;whiteSpace=wrap;overflow=hidden;rounded=0;fillColor=#f5f5f5;fontColor=#333333;strokeColor=#666666;" vertex="1" parent="1">
          <mxGeometry x="-990" y="-665" width="280" height="430" as="geometry" />
        </mxCell>
        <mxCell id="uQRwRF5fo-uvdLEsApBY-9" style="edgeStyle=orthogonalEdgeStyle;rounded=0;orthogonalLoop=1;jettySize=auto;html=1;entryX=0;entryY=0.5;entryDx=0;entryDy=0;" edge="1" parent="1" source="uQRwRF5fo-uvdLEsApBY-4" target="uQRwRF5fo-uvdLEsApBY-7">
          <mxGeometry relative="1" as="geometry" />
        </mxCell>
        <mxCell id="uQRwRF5fo-uvdLEsApBY-4" value="&lt;h1 style=&quot;margin-top: 0px;&quot;&gt;ASM Code&lt;/h1&gt;&lt;p&gt;_callee:&lt;/p&gt;&lt;p&gt;&amp;nbsp; &amp;nbsp; pushl&amp;nbsp; &amp;nbsp;%ebp&lt;/p&gt;&lt;p&gt;&amp;nbsp; &amp;nbsp; movl&amp;nbsp; &amp;nbsp; %esp, %ebp&lt;/p&gt;&lt;p&gt;&amp;nbsp; &amp;nbsp; movl&amp;nbsp; &amp;nbsp; 8(%ebp), %edx&lt;/p&gt;&lt;p&gt;&amp;nbsp; &amp;nbsp; movl&amp;nbsp; &amp;nbsp; 12(%ebp), %eax&lt;/p&gt;&lt;p&gt;&amp;nbsp; &amp;nbsp; addl&amp;nbsp; &amp;nbsp; %eax, %edx&lt;/p&gt;&lt;p&gt;&amp;nbsp; &amp;nbsp; movl&amp;nbsp; &amp;nbsp; 16(%ebp), %eax&lt;/p&gt;&lt;p&gt;&amp;nbsp; &amp;nbsp; addl&amp;nbsp; &amp;nbsp; %edx, %eax&lt;/p&gt;&lt;p&gt;&amp;nbsp; &amp;nbsp; popl&amp;nbsp; &amp;nbsp; %ebp&lt;/p&gt;&lt;p&gt;&amp;nbsp; &amp;nbsp; ret&lt;/p&gt;&lt;p&gt;&amp;nbsp; &amp;nbsp; .globl&amp;nbsp; _caller&lt;/p&gt;&lt;p&gt;&amp;nbsp; &amp;nbsp; .def&amp;nbsp; &amp;nbsp; _caller;&amp;nbsp; &amp;nbsp; .scl&amp;nbsp; &amp;nbsp; 2;&amp;nbsp; .type&amp;nbsp; &amp;nbsp;32; .endef&lt;/p&gt;&lt;p&gt;_caller:&lt;/p&gt;&lt;p&gt;&amp;nbsp; &amp;nbsp; pushl&amp;nbsp; &amp;nbsp;%ebp&lt;/p&gt;&lt;p&gt;&amp;nbsp; &amp;nbsp; movl&amp;nbsp; &amp;nbsp; %esp, %ebp&lt;/p&gt;&lt;p&gt;&amp;nbsp; &amp;nbsp; subl&amp;nbsp; &amp;nbsp; $28, %esp&lt;/p&gt;&lt;p&gt;&amp;nbsp; &amp;nbsp; movl&amp;nbsp; &amp;nbsp; $3, 8(%esp)&lt;/p&gt;&lt;p&gt;&amp;nbsp; &amp;nbsp; movl&amp;nbsp; &amp;nbsp; $2, 4(%esp)&lt;/p&gt;&lt;p&gt;&amp;nbsp; &amp;nbsp; movl&amp;nbsp; &amp;nbsp; $1, (%esp)&lt;/p&gt;&lt;p&gt;&amp;nbsp; &amp;nbsp; call&amp;nbsp; &amp;nbsp; _callee&lt;/p&gt;&lt;p&gt;&amp;nbsp; &amp;nbsp; movl&amp;nbsp; &amp;nbsp; %eax, -4(%ebp)&lt;/p&gt;&lt;p&gt;&amp;nbsp; &amp;nbsp; addl&amp;nbsp; &amp;nbsp; $4, -4(%ebp)&lt;/p&gt;&lt;p&gt;&amp;nbsp; &amp;nbsp; movl&amp;nbsp; &amp;nbsp; -4(%ebp), %eax&lt;/p&gt;&lt;p&gt;&amp;nbsp; &amp;nbsp; leave&lt;/p&gt;&lt;p&gt;&amp;nbsp; &amp;nbsp; ret&lt;/p&gt;" style="text;html=1;whiteSpace=wrap;overflow=hidden;rounded=0;fillColor=#f5f5f5;fontColor=#333333;strokeColor=#666666;" vertex="1" parent="1">
          <mxGeometry x="-530" y="-805" width="401" height="710" as="geometry" />
        </mxCell>
        <mxCell id="uQRwRF5fo-uvdLEsApBY-18" style="edgeStyle=orthogonalEdgeStyle;rounded=0;orthogonalLoop=1;jettySize=auto;html=1;entryX=0.5;entryY=0;entryDx=0;entryDy=0;" edge="1" parent="1" source="uQRwRF5fo-uvdLEsApBY-7" target="uQRwRF5fo-uvdLEsApBY-16">
          <mxGeometry relative="1" as="geometry" />
        </mxCell>
        <mxCell id="uQRwRF5fo-uvdLEsApBY-7" value="" style="rounded=0;whiteSpace=wrap;html=1;" vertex="1" parent="1">
          <mxGeometry x="120" y="-830" width="410" height="760" as="geometry" />
        </mxCell>
        <mxCell id="uQRwRF5fo-uvdLEsApBY-8" value="Stack" style="rounded=0;whiteSpace=wrap;html=1;" vertex="1" parent="1">
          <mxGeometry x="120" y="-830" width="410" height="60" as="geometry" />
        </mxCell>
        <mxCell id="uQRwRF5fo-uvdLEsApBY-11" value="&lt;p style=&quot;color: rgb(51, 51, 51); text-align: left;&quot;&gt;&lt;span style=&quot;background-color: initial;&quot;&gt;_caller&lt;/span&gt;函数&lt;/p&gt;&lt;p style=&quot;color: rgb(51, 51, 51); text-align: left;&quot;&gt;pushl&amp;nbsp; &amp;nbsp;%ebp&lt;/p&gt;" style="rounded=0;whiteSpace=wrap;html=1;" vertex="1" parent="1">
          <mxGeometry x="-60" y="-480" width="120" height="60" as="geometry" />
        </mxCell>
        <mxCell id="uQRwRF5fo-uvdLEsApBY-13" value="%ebp&lt;div&gt;ebp是当前函数的基地址&lt;/div&gt;" style="rounded=0;whiteSpace=wrap;html=1;" vertex="1" parent="1">
          <mxGeometry x="120" y="-130" width="410" height="60" as="geometry" />
        </mxCell>
        <mxCell id="uQRwRF5fo-uvdLEsApBY-14" value="&lt;p style=&quot;color: rgb(51, 51, 51); text-align: left;&quot;&gt;&lt;span style=&quot;background-color: initial;&quot;&gt;_caller&lt;/span&gt;函数&lt;/p&gt;&lt;p style=&quot;color: rgb(51, 51, 51); text-align: left;&quot;&gt;&lt;span style=&quot;background-color: initial;&quot;&gt;movl %esp, %ebp&lt;/span&gt;&lt;br&gt;&lt;/p&gt;&lt;div&gt;&lt;br&gt;&lt;/div&gt;" style="rounded=0;whiteSpace=wrap;html=1;" vertex="1" parent="1">
          <mxGeometry x="265" y="-30" width="120" height="60" as="geometry" />
        </mxCell>
        <mxCell id="uQRwRF5fo-uvdLEsApBY-31" style="edgeStyle=orthogonalEdgeStyle;rounded=0;orthogonalLoop=1;jettySize=auto;html=1;entryX=1;entryY=0.5;entryDx=0;entryDy=0;" edge="1" parent="1" source="uQRwRF5fo-uvdLEsApBY-15" target="uQRwRF5fo-uvdLEsApBY-27">
          <mxGeometry relative="1" as="geometry" />
        </mxCell>
        <mxCell id="uQRwRF5fo-uvdLEsApBY-15" value="" style="rounded=0;whiteSpace=wrap;html=1;" vertex="1" parent="1">
          <mxGeometry x="120" y="80" width="410" height="760" as="geometry" />
        </mxCell>
        <mxCell id="uQRwRF5fo-uvdLEsApBY-16" value="Stack" style="rounded=0;whiteSpace=wrap;html=1;" vertex="1" parent="1">
          <mxGeometry x="120" y="80" width="410" height="60" as="geometry" />
        </mxCell>
        <mxCell id="uQRwRF5fo-uvdLEsApBY-17" value="%ebp&lt;div&gt;这里的ebp是指父函数的地址&lt;/div&gt;" style="rounded=0;whiteSpace=wrap;html=1;" vertex="1" parent="1">
          <mxGeometry x="120" y="140" width="410" height="60" as="geometry" />
        </mxCell>
        <mxCell id="uQRwRF5fo-uvdLEsApBY-19" value="%esp&lt;div&gt;ebp是当前函数的基地址&lt;/div&gt;" style="rounded=0;whiteSpace=wrap;html=1;" vertex="1" parent="1">
          <mxGeometry x="120" y="780" width="410" height="60" as="geometry" />
        </mxCell>
        <mxCell id="uQRwRF5fo-uvdLEsApBY-23" style="edgeStyle=orthogonalEdgeStyle;rounded=0;orthogonalLoop=1;jettySize=auto;html=1;entryX=0.5;entryY=0;entryDx=0;entryDy=0;" edge="1" parent="1" source="uQRwRF5fo-uvdLEsApBY-20" target="uQRwRF5fo-uvdLEsApBY-8">
          <mxGeometry relative="1" as="geometry" />
        </mxCell>
        <mxCell id="uQRwRF5fo-uvdLEsApBY-20" value="" style="rounded=0;whiteSpace=wrap;html=1;" vertex="1" parent="1">
          <mxGeometry x="120" y="-1690" width="410" height="760" as="geometry" />
        </mxCell>
        <mxCell id="uQRwRF5fo-uvdLEsApBY-21" value="Stack" style="rounded=0;whiteSpace=wrap;html=1;" vertex="1" parent="1">
          <mxGeometry x="120" y="-1690" width="410" height="60" as="geometry" />
        </mxCell>
        <mxCell id="uQRwRF5fo-uvdLEsApBY-22" value="%ebp&lt;div&gt;ebp是当前函数的基地址&lt;/div&gt;" style="rounded=0;whiteSpace=wrap;html=1;" vertex="1" parent="1">
          <mxGeometry x="120" y="-1640" width="410" height="60" as="geometry" />
        </mxCell>
        <mxCell id="uQRwRF5fo-uvdLEsApBY-25" style="edgeStyle=orthogonalEdgeStyle;rounded=0;orthogonalLoop=1;jettySize=auto;html=1;entryX=0.5;entryY=0;entryDx=0;entryDy=0;" edge="1" parent="1" source="uQRwRF5fo-uvdLEsApBY-24" target="uQRwRF5fo-uvdLEsApBY-21">
          <mxGeometry relative="1" as="geometry" />
        </mxCell>
        <mxCell id="uQRwRF5fo-uvdLEsApBY-24" value="函数刚被拉起来的样子" style="rounded=0;whiteSpace=wrap;html=1;" vertex="1" parent="1">
          <mxGeometry x="212.5" y="-1783" width="225" height="60" as="geometry" />
        </mxCell>
        <mxCell id="uQRwRF5fo-uvdLEsApBY-26" value="%ebp&lt;div&gt;ebp是当前函数的基地址&lt;/div&gt;" style="rounded=0;whiteSpace=wrap;html=1;" vertex="1" parent="1">
          <mxGeometry x="120" y="-770" width="410" height="60" as="geometry" />
        </mxCell>
        <mxCell id="uQRwRF5fo-uvdLEsApBY-27" value="" style="rounded=0;whiteSpace=wrap;html=1;" vertex="1" parent="1">
          <mxGeometry x="-534.5" y="80" width="410" height="760" as="geometry" />
        </mxCell>
        <mxCell id="uQRwRF5fo-uvdLEsApBY-28" value="Stack" style="rounded=0;whiteSpace=wrap;html=1;" vertex="1" parent="1">
          <mxGeometry x="-534.5" y="80" width="410" height="60" as="geometry" />
        </mxCell>
        <mxCell id="uQRwRF5fo-uvdLEsApBY-29" value="%ebp&lt;div&gt;这里的ebp是指父函数的地址&lt;/div&gt;" style="rounded=0;whiteSpace=wrap;html=1;" vertex="1" parent="1">
          <mxGeometry x="-534.5" y="140" width="410" height="60" as="geometry" />
        </mxCell>
        <mxCell id="uQRwRF5fo-uvdLEsApBY-30" value="%esp&lt;div&gt;老的esp地址&lt;/div&gt;" style="rounded=0;whiteSpace=wrap;html=1;" vertex="1" parent="1">
          <mxGeometry x="-534.5" y="380" width="410" height="60" as="geometry" />
        </mxCell>
        <mxCell id="uQRwRF5fo-uvdLEsApBY-32" value="&lt;div&gt;&lt;p style=&quot;color: rgb(51, 51, 51); text-align: left;&quot;&gt;&lt;span style=&quot;background-color: initial;&quot;&gt;_caller&lt;/span&gt;函数&lt;/p&gt;&lt;/div&gt;&amp;nbsp;&lt;span style=&quot;color: rgb(51, 51, 51); text-align: left; background-color: initial;&quot;&gt;subl&amp;nbsp; &amp;nbsp; $28, %esp&lt;/span&gt;" style="rounded=0;whiteSpace=wrap;html=1;" vertex="1" parent="1">
          <mxGeometry x="-60" y="427.5" width="120" height="65" as="geometry" />
        </mxCell>
        <mxCell id="uQRwRF5fo-uvdLEsApBY-33" value="......" style="rounded=0;whiteSpace=wrap;html=1;" vertex="1" parent="1">
          <mxGeometry x="-534.5" y="200" width="410" height="180" as="geometry" />
        </mxCell>
        <mxCell id="uQRwRF5fo-uvdLEsApBY-36" value="1" style="rounded=0;whiteSpace=wrap;html=1;" vertex="1" parent="1">
          <mxGeometry x="-534.5" y="440" width="410" height="60" as="geometry" />
        </mxCell>
        <mxCell id="uQRwRF5fo-uvdLEsApBY-37" value="2" style="rounded=0;whiteSpace=wrap;html=1;" vertex="1" parent="1">
          <mxGeometry x="-534.5" y="500" width="410" height="60" as="geometry" />
        </mxCell>
        <mxCell id="uQRwRF5fo-uvdLEsApBY-38" value="3" style="rounded=0;whiteSpace=wrap;html=1;" vertex="1" parent="1">
          <mxGeometry x="-534.5" y="560" width="410" height="60" as="geometry" />
        </mxCell>
        <mxCell id="uQRwRF5fo-uvdLEsApBY-41" value="28" style="rounded=0;whiteSpace=wrap;html=1;" vertex="1" parent="1">
          <mxGeometry x="-534.5" y="720" width="410" height="60" as="geometry" />
        </mxCell>
        <mxCell id="uQRwRF5fo-uvdLEsApBY-42" value="%esp&lt;div&gt;新的esp地址&lt;/div&gt;" style="rounded=0;whiteSpace=wrap;html=1;" vertex="1" parent="1">
          <mxGeometry x="-534.5" y="780" width="410" height="60" as="geometry" />
        </mxCell>
        <mxCell id="uQRwRF5fo-uvdLEsApBY-43" value=".&lt;div&gt;.&lt;/div&gt;&lt;div&gt;.&lt;/div&gt;&lt;div&gt;.&lt;/div&gt;&lt;div&gt;.&lt;/div&gt;&lt;div&gt;.&lt;/div&gt;" style="rounded=0;whiteSpace=wrap;html=1;" vertex="1" parent="1">
          <mxGeometry x="-534.5" y="620" width="410" height="100" as="geometry" />
        </mxCell>
        <mxCell id="uQRwRF5fo-uvdLEsApBY-44" value="" style="rounded=0;whiteSpace=wrap;html=1;" vertex="1" parent="1">
          <mxGeometry x="-1150" y="80" width="410" height="760" as="geometry" />
        </mxCell>
        <mxCell id="uQRwRF5fo-uvdLEsApBY-45" value="Stack" style="rounded=0;whiteSpace=wrap;html=1;" vertex="1" parent="1">
          <mxGeometry x="-1150" y="80" width="410" height="60" as="geometry" />
        </mxCell>
        <mxCell id="uQRwRF5fo-uvdLEsApBY-46" value="%ebp&lt;div&gt;这里的ebp是指父函数的地址&lt;/div&gt;" style="rounded=0;whiteSpace=wrap;html=1;" vertex="1" parent="1">
          <mxGeometry x="-1150" y="140" width="410" height="60" as="geometry" />
        </mxCell>
        <mxCell id="uQRwRF5fo-uvdLEsApBY-47" value="%esp&lt;div&gt;老的esp地址&lt;/div&gt;" style="rounded=0;whiteSpace=wrap;html=1;" vertex="1" parent="1">
          <mxGeometry x="-1150" y="380" width="410" height="60" as="geometry" />
        </mxCell>
        <mxCell id="uQRwRF5fo-uvdLEsApBY-48" value="......" style="rounded=0;whiteSpace=wrap;html=1;" vertex="1" parent="1">
          <mxGeometry x="-1150" y="200" width="410" height="180" as="geometry" />
        </mxCell>
        <mxCell id="uQRwRF5fo-uvdLEsApBY-49" value="1-4&lt;div&gt;3&lt;/div&gt;" style="rounded=0;whiteSpace=wrap;html=1;" vertex="1" parent="1">
          <mxGeometry x="-1150" y="440" width="410" height="60" as="geometry" />
        </mxCell>
        <mxCell id="uQRwRF5fo-uvdLEsApBY-50" value="4-8&lt;div&gt;2&lt;/div&gt;" style="rounded=0;whiteSpace=wrap;html=1;" vertex="1" parent="1">
          <mxGeometry x="-1150" y="500" width="410" height="60" as="geometry" />
        </mxCell>
        <mxCell id="uQRwRF5fo-uvdLEsApBY-51" value="8-12&lt;div&gt;1&lt;/div&gt;" style="rounded=0;whiteSpace=wrap;html=1;" vertex="1" parent="1">
          <mxGeometry x="-1150" y="560" width="410" height="60" as="geometry" />
        </mxCell>
        <mxCell id="uQRwRF5fo-uvdLEsApBY-52" value="28" style="rounded=0;whiteSpace=wrap;html=1;" vertex="1" parent="1">
          <mxGeometry x="-1150" y="720" width="410" height="60" as="geometry" />
        </mxCell>
        <mxCell id="uQRwRF5fo-uvdLEsApBY-53" value="%esp&lt;div&gt;新的esp地址&lt;/div&gt;" style="rounded=0;whiteSpace=wrap;html=1;" vertex="1" parent="1">
          <mxGeometry x="-1150" y="780" width="410" height="60" as="geometry" />
        </mxCell>
        <mxCell id="uQRwRF5fo-uvdLEsApBY-54" value=".&lt;div&gt;.&lt;/div&gt;&lt;div&gt;.&lt;/div&gt;&lt;div&gt;.&lt;/div&gt;&lt;div&gt;.&lt;/div&gt;&lt;div&gt;.&lt;/div&gt;" style="rounded=0;whiteSpace=wrap;html=1;" vertex="1" parent="1">
          <mxGeometry x="-1150" y="620" width="410" height="100" as="geometry" />
        </mxCell>
        <mxCell id="uQRwRF5fo-uvdLEsApBY-59" value="" style="edgeStyle=orthogonalEdgeStyle;rounded=0;orthogonalLoop=1;jettySize=auto;html=1;entryX=1;entryY=0.5;entryDx=0;entryDy=0;" edge="1" parent="1" source="uQRwRF5fo-uvdLEsApBY-27" target="uQRwRF5fo-uvdLEsApBY-44">
          <mxGeometry relative="1" as="geometry">
            <mxPoint x="-534" y="460" as="sourcePoint" />
            <mxPoint x="-720" y="460" as="targetPoint" />
            <Array as="points">
              <mxPoint x="-557" y="460" />
              <mxPoint x="-740" y="461" />
            </Array>
          </mxGeometry>
        </mxCell>
        <mxCell id="uQRwRF5fo-uvdLEsApBY-60" value="&lt;div&gt;&lt;p style=&quot;color: rgb(51, 51, 51); text-align: left;&quot;&gt;&lt;span style=&quot;background-color: initial;&quot;&gt;_caller&lt;/span&gt;函数&lt;/p&gt;&lt;/div&gt;&lt;p style=&quot;color: rgb(51, 51, 51); text-align: left;&quot;&gt;movl&amp;nbsp; &amp;nbsp; $3, 8(%esp)&lt;/p&gt;&lt;p style=&quot;color: rgb(51, 51, 51); text-align: left;&quot;&gt;movl&amp;nbsp; &amp;nbsp; $2, 4(%esp)&lt;/p&gt;&lt;p style=&quot;color: rgb(51, 51, 51); text-align: left;&quot;&gt;&lt;span style=&quot;background-color: initial;&quot;&gt;movl&amp;nbsp; &amp;nbsp; $1, (%esp)&lt;/span&gt;&lt;/p&gt;" style="rounded=0;whiteSpace=wrap;html=1;" vertex="1" parent="1">
          <mxGeometry x="-700" y="380" width="120" height="162.5" as="geometry" />
        </mxCell>
      </root>
    </mxGraphModel>
  </diagram>
</mxfile>
